<svg width="83" height="48" viewBox="0 0 83 48" fill="none" xmlns="http://www.w3.org/2000/svg"><path d="M1.385 37V1h2.97v33.3h7.2V37H1.385zM22.358 37.315c-2.07 0-3.57-.45-4.5-1.35-.9-.9-1.365-2.4-1.395-4.5-.09-10.14-.09-20.295 0-30.465h3.015c-.06 5.07-.105 10.23-.135 15.48 0 5.22.03 10.365.09 15.435 0 1.89.975 2.835 2.925 2.835 1.92 0 2.88-.945 2.88-2.835.03-5.07.045-10.215.045-15.435.03-5.25.015-10.41-.045-15.48h2.97c.09 10.17.09 20.325 0 30.465-.03 2.1-.495 3.6-1.395 4.5-.9.9-2.385 1.35-4.455 1.35zM33.839 37l4.275-18.36L34.064 1h2.88l1.755 8.235 1.305 8.19h.495l1.26-8.19L43.514 1h2.88l-3.915 17.73L46.619 37h-2.925l-1.935-8.91-1.26-7.965h-.495l-1.305 7.965L36.764 37h-2.925zM57.919 37.315c-2.07 0-3.555-.45-4.455-1.35-.9-.93-1.395-2.46-1.486-4.59-.03-1.38-.044-2.595-.044-3.645 0-1.08.044-2.325.135-3.735h2.834c-.06 1.32-.09 2.64-.09 3.96 0 1.32.03 2.61.09 3.87.06 1.02.316 1.77.766 2.25.45.45 1.2.675 2.25.675.99 0 1.695-.225 2.114-.675.45-.48.706-1.23.765-2.25.06-.84.09-1.59.09-2.25 0-.66-.014-1.335-.044-2.025 0-.72-.016-1.545-.046-2.475-.03-1.14-.195-2.085-.495-2.835-.27-.75-.825-1.23-1.664-1.44l-2.386-.63c-1.74-.42-2.88-1.185-3.42-2.295-.54-1.11-.84-2.7-.9-4.77-.03-.99-.044-2.055-.044-3.195l.09-3.33c.03-2.1.495-3.6 1.395-4.5.9-.93 2.414-1.395 4.544-1.395 1.98 0 3.406.465 4.276 1.395.9.9 1.395 2.4 1.484 4.5v3.105c0 1.2-.014 2.46-.044 3.78h-2.88a145.857 145.857 0 000-7.335c-.06-1.92-1.02-2.88-2.88-2.88-1.02 0-1.756.24-2.206.72-.42.45-.66 1.17-.72 2.16a68.524 68.524 0 000 6.975c.03 1.35.18 2.355.45 3.015.3.66.9 1.11 1.8 1.35l2.206.54c1.77.42 2.924 1.2 3.464 2.34.57 1.14.886 2.715.945 4.725.03.93.045 1.71.045 2.34 0 .63-.014 1.245-.044 1.845v2.115c-.09 2.13-.586 3.66-1.486 4.59-.9.9-2.37 1.35-4.41 1.35zM69.09 37l3.87-36h5.58l3.825 36h-3.06l-.945-10.44h-5.265L72.15 37h-3.06zm4.275-13.14h4.725l-.72-7.875L76.38 3.7h-1.26l-1.035 12.33-.72 7.83zM4.356 43.167c.361.078.639.235.832.47.2.23.299.53.299.895 0 .471-.176.835-.526 1.092-.346.25-.859.376-1.539.376H.895v-5.494h2.37c.612 0 1.086.123 1.42.368.341.246.511.594.511 1.044 0 .304-.076.563-.228.778-.146.209-.35.366-.612.47zm-2.88-2.183v1.994h1.75c.445 0 .787-.084 1.028-.251.24-.173.361-.421.361-.746 0-.324-.12-.57-.36-.738-.242-.172-.584-.259-1.03-.259h-1.75zm1.938 4.537c.492 0 .864-.083 1.115-.25.251-.168.377-.43.377-.786 0-.685-.497-1.028-1.492-1.028H1.475v2.064h1.94zM12.857 45.498V46H8.97v-5.494h3.768v.502H9.552v1.954h2.841v.495H9.552v2.04h3.305zM17.895 46.047c-.408 0-.8-.065-1.177-.196-.372-.13-.66-.303-.864-.518l.228-.447c.199.198.463.36.793.486.33.12.67.18 1.02.18.492 0 .861-.088 1.107-.266.246-.183.37-.419.37-.706a.695.695 0 00-.205-.526c-.13-.131-.293-.23-.487-.299a7.172 7.172 0 00-.808-.235 9.17 9.17 0 01-.99-.299 1.694 1.694 0 01-.635-.447c-.173-.199-.259-.468-.259-.808 0-.278.073-.529.22-.754.146-.23.371-.413.675-.55.303-.136.68-.203 1.13-.203.314 0 .62.044.918.133.304.084.566.201.785.353l-.196.463a2.612 2.612 0 00-.738-.337 2.669 2.669 0 00-.769-.118c-.481 0-.845.094-1.09.283a.857.857 0 00-.362.714c0 .22.065.398.196.534.136.13.304.233.503.306.204.068.476.144.816.227.403.1.727.2.973.299.252.094.463.24.636.44.173.193.26.457.26.792 0 .277-.077.531-.229.761-.146.226-.374.406-.682.542-.31.13-.689.196-1.139.196zM24.36 41.008h-1.932v-.502h4.443v.502h-1.93V46h-.582v-4.992zM39.705 46.463a1.646 1.646 0 01-.597.463c-.225.11-.471.165-.738.165-.324 0-.633-.08-.926-.243-.288-.157-.612-.424-.974-.8a2.976 2.976 0 01-1.428-.393 2.682 2.682 0 01-.997-.997 2.768 2.768 0 01-.361-1.405c0-.529.123-1.005.369-1.429a2.674 2.674 0 011.036-.997c.445-.245.94-.368 1.484-.368s1.033.12 1.467.36c.44.241.785.576 1.037 1.005.25.424.376.9.376 1.429 0 .46-.097.884-.29 1.272a2.622 2.622 0 01-.8.957 2.78 2.78 0 01-1.178.51c.403.424.8.636 1.193.636.408 0 .756-.167 1.044-.502l.283.337zm-5.448-3.21c0 .429.1.816.298 1.162.204.345.482.617.832.816.356.199.751.298 1.186.298.434 0 .826-.1 1.177-.298.35-.199.625-.471.824-.816.2-.346.299-.733.299-1.162 0-.43-.1-.816-.299-1.162a2.167 2.167 0 00-.824-.816 2.345 2.345 0 00-1.177-.298c-.435 0-.83.099-1.186.298-.35.199-.628.47-.832.816a2.285 2.285 0 00-.298 1.162zM45.127 46.047c-.711 0-1.266-.204-1.664-.612-.397-.408-.596-1.002-.596-1.782v-3.147h.58v3.124c0 .638.145 1.114.432 1.428.288.314.704.471 1.248.471.55 0 .969-.157 1.256-.47.288-.315.432-.79.432-1.43v-3.123h.565v3.147c0 .78-.199 1.374-.596 1.782-.393.408-.945.612-1.657.612zM54.62 44.532H51.56L50.899 46h-.604l2.512-5.494h.573L55.892 46h-.612l-.66-1.468zm-.212-.47L53.09 41.11l-1.32 2.951h2.638zM58.96 40.506h.58v4.992h3.077V46H58.96v-5.494zM65.74 40.506h.581V46h-.58v-5.494zM71.335 41.008h-1.93v-.502h4.442v.502h-1.93V46h-.582v-4.992zM78.78 44.1V46h-.574v-1.9l-2.198-3.594h.62l1.884 3.084 1.884-3.084h.581L78.779 44.1z" fill="#fff"/></svg>