<svg xmlns="http://www.w3.org/2000/svg" width="40" height="40" fill="none" viewBox="0 0 40 40"><path fill="currentColor" d="M25 6.667a13.334 13.334 0 1 1 0 26.667 13.334 13.334 0 0 1 0-26.668zM25 10a10 10 0 1 0 0 20 10 10 0 0 0 0-20zm-1.667 3.333h2.5v6.3l3.884 3.884-1.767 1.766-4.617-4.617v-7.333zM3.333 30a1.667 1.667 0 0 1 0-3.334h6.384A17.109 17.109 0 0 0 11.667 30H3.333zM5 21.666a1.667 1.667 0 1 1 0-3.333h3.417L8.333 20l.084 1.666H5zm1.667-8.333a1.667 1.667 0 1 1 0-3.333h5a17.108 17.108 0 0 0-1.95 3.333h-3.05z"/></svg>