<svg xmlns="http://www.w3.org/2000/svg" width="40" height="40" fill="none" viewBox="0 0 40 40"><path fill="currentColor" d="M20.111 12.222A7.73 7.73 0 0 0 12.333 20a7.73 7.73 0 0 0 7.778 7.778A7.73 7.73 0 0 0 27.89 20a7.73 7.73 0 0 0-7.778-7.778zm0 13.333c-3.111 0-5.555-2.444-5.555-5.555 0-3.111 2.444-5.556 5.555-5.556 3.111 0 5.556 2.445 5.556 5.556s-2.445 5.555-5.556 5.555z"/><path fill="currentColor" d="M36.444 16.333l-3.11-1-.667-1.666 1.555-2.89c.334-.666.222-1.555-.333-2.11L31.222 6c-.555-.556-1.444-.667-2.11-.333l-2.89 1.555-1.667-.667-1-3.11c-.222-.667-.888-1.223-1.666-1.223H18.11c-.778 0-1.444.556-1.556 1.333l-1 3.112a4.91 4.91 0 0 0-1.777.666l-2.89-1.555c-.666-.334-1.555-.222-2.11.333L6.11 8.778c-.555.555-.667 1.444-.333 2.11l1.444 2.779c-.222.555-.444 1.222-.667 1.777l-3.11 1c-.667.223-1.223.89-1.223 1.667v3.778c0 .778.556 1.444 1.333 1.666l3.112 1 .666 1.667-1.555 2.89c-.334.666-.222 1.555.333 2.11l2.667 2.667c.555.555 1.444.666 2.11.333l2.89-1.555 1.666.666 1 3.223c.223.666.89 1.222 1.667 1.222h3.778c.778 0 1.444-.556 1.666-1.222l1-3.223 1.667-.666 2.89 1.555c.666.334 1.555.222 2.11-.333l2.667-2.667c.555-.555.666-1.444.333-2.11l-1.555-2.89.666-1.667 3.223-1c.666-.222 1.222-.888 1.222-1.666V18.11c0-.778-.556-1.556-1.334-1.778zm-.889 5.223l-4 1.222-.11.555-1 2.334-.334.555 2 3.667-2.222 2.222-3.667-2-.555.333a10.55 10.55 0 0 1-2.334 1l-.555.111-1.223 4h-3.11l-1.223-4-.555-.11-2.334-1-.555-.334-3.667 2L7.89 29.89l2-3.667-.333-.555a10.548 10.548 0 0 1-1-2.334l-.112-.555-4-1.223v-3.11l3.778-1.112.222-.555a9.431 9.431 0 0 1 1-2.445l.334-.555-1.89-3.667 2.223-2.222 3.556 2 .555-.333a9.43 9.43 0 0 1 2.445-1l.555-.223 1.222-3.889h3.111l1.223 3.89.555.222c.778.222 1.556.555 2.334 1l.555.333 3.667-2 2.222 2.222-2 3.667.333.555a10.55 10.55 0 0 1 1 2.334l.111.555 4 1.222v3.111z"/></svg>