<svg xmlns="http://www.w3.org/2000/svg" width="40" height="40" fill="none" viewBox="0 0 40 40"><path fill="currentColor" d="M13.06 8.016a8 8 0 11-.288 7.416 2.986 2.986 0 01-1.768.576h-1v.51c0 .38.144.726.38.988a1.498 1.498 0 112.128 2.106 1.5 1.5 0 01-1.152.382 3.478 3.478 0 01-3.356-3.476V9.014a1 1 0 011-1h4l.056.002zm.944 4.222a6 6 0 100-.476v.476zm-2-.514v-1.71h-2v3.994h1a1 1 0 001-1v-.732a8.193 8.193 0 010-.552zM6 26c0-2.226 1.806-4 4.018-4H30a4 4 0 014 4c0 3.382-1.666 5.932-4.27 7.594C27.166 35.228 23.71 36 20 36c-3.71 0-7.166-.772-9.73-2.406C7.666 31.934 6 29.38 6 26zm4.018-2A2.003 2.003 0 008 26c0 2.618 1.244 4.568 3.346 5.906C13.486 33.272 16.53 34 20 34c3.47 0 6.514-.728 8.654-2.094C30.754 30.566 32 28.62 32 26a2 2 0 00-2-2H10.018z"/></svg>