<svg xmlns="http://www.w3.org/2000/svg" width="40" height="40" fill="none" viewBox="0 0 40 40"><path fill="currentColor" d="M11.289 35.233a4.889 4.889 0 01-6.221-2.694 4.822 4.822 0 01-.368-1.872 4.9 4.9 0 01.2-1.334c-.482-.9-.855-1.855-1.111-2.844a7.111 7.111 0 0010.367 9.589 12.833 12.833 0 01-2.867-.845zM20.456 30.755a8.456 8.456 0 01-10.09-1.4 8.422 8.422 0 01-1.41-10.066 15.844 15.844 0 01-.412-3.167 10.644 10.644 0 00.245 14.811 10.7 10.7 0 0014.833.245 16.067 16.067 0 01-3.166-.423z"/><path fill="currentColor" d="M24.067 29.122a13.445 13.445 0 1 1 .04-26.889 13.445 13.445 0 0 1-.04 26.89zm0-24.677a11.233 11.233 0 0 0-11.245 11.233 11.114 11.114 0 0 0 3.334 7.933 11.244 11.244 0 0 0 15.9 0 11.234 11.234 0 0 0-7.99-19.166z"/></svg>