<svg xmlns="http://www.w3.org/2000/svg" width="78" height="58" fill="none" viewBox="0 0 78 58"><path stroke="currentColor" stroke-linecap="round" stroke-linejoin="round" stroke-width="3" d="M21.417 56.417a7.833 7.833 0 1 0 0-15.667 7.833 7.833 0 0 0 0 15.667zm39.166 0a7.833 7.833 0 1 0 0-15.667 7.833 7.833 0 0 0 0 15.667z"/><path stroke="currentColor" stroke-linecap="round" stroke-linejoin="round" stroke-width="3" d="M13.584 48.584H5.751V32.916M1.834 1.583h43.083v47m-15.666 0h23.5m15.666 0h7.834v-23.5m0 0H44.917m31.334 0L64.5 5.5H44.917M5.75 17.25h15.667"/></svg>