<svg xmlns="http://www.w3.org/2000/svg" width="82" height="58" fill="none" viewBox="0 0 82 58"><path stroke="currentColor" stroke-width="2" d="M24.683 42.283l-.6.8.8.6 6.533 4.9.8.6.6-.8 24.5-32.667.6-.8-.8-.6-6.533-4.9-.8-.6-.6.8-24.5 32.667zM4.249 1.416h73.5A3.083 3.083 0 0 1 80.833 4.5v15.333h-2.647c-4.48 0-8.734 3.064-9.48 7.63a9.17 9.17 0 0 0 9.043 10.703s0 0 0 0h3.084V53.5a3.083 3.083 0 0 1-3.084 3.083H4.25A3.084 3.084 0 0 1 1.166 53.5V38.166h3.083s0 0 0 0a9.171 9.171 0 0 0 9.043-10.702c-.745-4.567-4.999-7.63-9.48-7.63H1.166V4.5a3.083 3.083 0 0 1 3.083-3.083zM32.344 17.24a5.083 5.083 0 1 0-7.19 7.189 5.083 5.083 0 0 0 7.19-7.19zm17.31 23.522a5.083 5.083 0 1 0 7.19-7.19 5.083 5.083 0 0 0-7.19 7.19z"/></svg>