<svg xmlns="http://www.w3.org/2000/svg" width="147" height="148" viewBox="0 0 147 148" fill="none"><path d="M131.98 90.082l1.338.321c-.815-.81-1.126-1.614-.934-2.412.189-.788.654-1.335 1.397-1.639.742-.304 1.657-.326 2.746-.065 1.089.262 1.885.76 2.389 1.495.503.735.649 1.544.438 2.425a3.051 3.051 0 01-.794 1.455l3.096.743c.145.035.235-.02.27-.166l.175-.73.28.066-.183.763c-.149.622-.223 1.065-.22 1.329l-9.675-2.323c-.146-.035-.236.02-.27.166l-.176.73-.28-.067.183-.762c.149-.622.223-1.065.22-1.329zm6.899.044c.127-.529-.034-1.045-.484-1.547-.439-.5-1.135-.865-2.09-1.094-.954-.23-1.731-.257-2.332-.083-.593.186-.946.513-1.058.98-.162.674.164 1.394.979 2.16l4.184 1.004a2.96 2.96 0 00.801-1.42zM130.702 95.746l5.489 2.128c.139.054.235.011.289-.128l.272-.7.269.103-.284.731c-.231.597-.363 1.026-.396 1.288l-6.085-2.36c-.12-.047-.206 0-.26.14l-.272.7-.269-.104 1.123-2.893.268.104-.272.7c-.054.14-.011.237.128.29zm7.595 2.98a.77.77 0 01.582.002.714.714 0 01.417.385c.085.193.089.39.012.588a.687.687 0 01-.399.411.69.69 0 01-.573.018.744.744 0 01-.427-.405.716.716 0 01-.003-.568.775.775 0 01.391-.432zM130.829 104.57l-1.344 1.162c-.32.275-.664.428-1.032.458a1.697 1.697 0 01-1.038-.201c-.506-.276-.846-.722-1.02-1.339-.174-.617-.075-1.267.298-1.951a5.534 5.534 0 011.42-1.704c.194.179.572.421 1.134.727l.562.306-.138.253-.784-.299c-.748-.299-1.368.002-1.857.901-.22.402-.279.801-.178 1.196.105.409.316.701.635.874.44.24.904.147 1.391-.28l1.344-1.163c.3-.261.627-.405.981-.431.354-.025.695.051 1.023.23.497.27.835.685 1.016 1.245.19.565.14 1.115-.151 1.648-.296.544-.754 1.084-1.374 1.62-.194-.178-.572-.421-1.134-.727l-.562-.306.138-.253.784.3c.715.292 1.284.05 1.707-.728.189-.346.237-.691.144-1.033a1.16 1.16 0 00-.575-.75c-.449-.245-.913-.163-1.39.245zM126.998 114.796c.365-.486.429-1.058.19-1.718-.236-.644-.759-1.27-1.569-1.879-.81-.609-1.558-.944-2.245-1.006-.685-.048-1.2.159-1.546.619-.352.469-.521.942-.507 1.42.015.478.202.939.562 1.383l-.233.204c-.444-.493-.673-1.032-.687-1.616a2.532 2.532 0 01.529-1.583c.558-.742 1.282-1.165 2.174-1.269.885-.095 1.78.197 2.683.876.904.679 1.43 1.461 1.579 2.347.148.885-.059 1.703-.623 2.453-.435.58-.894.915-1.376 1.007-.474.097-.928-.017-1.363-.344-.563-.423-.726-.792-.489-1.107.192-.256.414-.409.666-.46.166.311.386.569.659.774.281.212.566.312.854.302.29.004.537-.13.742-.403zM118.055 116.093c.882.046 1.719.473 2.51 1.281.791.807 1.201 1.652 1.23 2.535.029.882-.3 1.66-.985 2.331-.686.672-1.469.985-2.351.938-.89-.039-1.73-.462-2.521-1.27-.792-.807-1.198-1.656-1.219-2.546-.029-.883.3-1.66.985-2.332.686-.671 1.469-.984 2.351-.937zm2.91 4.248c-.137-.687-.559-1.393-1.268-2.116-.709-.724-1.41-1.165-2.102-1.323-.685-.15-1.233-.023-1.644.38-.412.403-.549.948-.413 1.636.136.703.559 1.416 1.268 2.139.709.724 1.41 1.157 2.102 1.3.692.158 1.244.035 1.656-.368.411-.403.545-.952.401-1.648zM111.999 129.166l-1.649 1.188-.168-.234.48-.346c.078-.056.095-.16.051-.313l-1.805-6.585.351-.252 5.673 3.799c.131.09.235.107.313.051l.48-.346.168.234-2.207 1.589-.168-.234.649-.467-4.447-3.027 1.449 5.186.662-.476.168.233zM104.376 133.84c-.653.339-1.282.389-1.887.15-.604-.239-1.125-.78-1.562-1.623a6.715 6.715 0 01-.266-.583l3.876-2.01-.051-.1c-.467-.899-.996-1.526-1.588-1.879-.597-.34-1.15-.377-1.662-.112-.52.27-.878.624-1.071 1.061-.194.437-.225.933-.093 1.489l-.3.084c-.185-.637-.158-1.221.082-1.755a2.53 2.53 0 011.163-1.197c.824-.428 1.66-.495 2.508-.202.839.297 1.517.943 2.032 1.937.521 1.004.657 1.937.407 2.799-.245.872-.774 1.519-1.588 1.941zm-2.219-1.498c.604 1.164 1.342 1.521 2.212 1.069.436-.226.687-.657.754-1.292.057-.631-.093-1.315-.453-2.054l-2.854 1.481c.129.341.243.606.341.796zM94.602 137.822c-.392.138-.768.084-1.126-.163-.368-.243-.641-.617-.818-1.12-.177-.503-.06-.827.353-.972a.843.843 0 01.668.019c-.028.338.01.658.117.96.188.533.503.721.946.566.372-.132.594-.56.666-1.287.066-.712-.109-1.657-.523-2.834l-.707-2.007c-.05-.141-.144-.187-.285-.137l-1.011.356-.096-.272 3.23-1.137.095.272-.71.25c-.14.049-.186.145-.136.285l1.955 5.553c.05.141.145.187.285.137l.71-.25.095.272-.739.26c-.604.213-1.016.392-1.236.537l-.68-1.931c.084.75.026 1.342-.172 1.773-.195.442-.489.732-.881.87zM71.617 138.656l-.199-4.186c-.006-.128-.083-.189-.233-.181l-.75.035-.014-.287 2.876-.137.014.288-.528.025c-.149.007-.22.074-.214.202l.208 4.394c.026.544.157.938.392 1.183.237.256.547.374.93.356.533-.025.953-.392 1.261-1.101.309-.698.433-1.691.371-2.98l-.093-1.965c-.007-.15-.085-.221-.234-.213l-.751.035-.014-.288 2.877-.136.013.288-.527.025c-.15.007-.22.074-.215.202l.209 4.394c.025.544.156.938.392 1.183.236.256.546.374.93.356.532-.025.953-.392 1.26-1.101.31-.698.433-1.691.372-2.98l-.093-1.965c-.007-.15-.085-.221-.235-.214l-.527.025-.013-.287 2.876-.136.013.287-.75.036c-.15.007-.221.074-.215.202l.28 5.912c.007.15.085.221.234.213l.751-.035.014.287-.783.038c-.64.03-1.085.083-1.338.159l-.101-2.141c-.281 1.508-1.002 2.29-2.163 2.345a1.816 1.816 0 01-1.353-.497c-.401-.354-.636-.909-.703-1.664-.28 1.519-1.001 2.306-2.163 2.361-.532.025-1-.156-1.403-.542-.402-.376-.622-.975-.661-1.795zM67.535 134.181c.499.729.667 1.653.506 2.772-.16 1.119-.583 1.958-1.267 2.517-.684.558-1.501.769-2.451.633-.95-.137-1.674-.57-2.173-1.299-.509-.731-.683-1.655-.521-2.774.16-1.119.588-1.957 1.283-2.515.684-.558 1.5-.769 2.45-.633.95.137 1.675.57 2.173 1.299zm-1.61 4.892c.465-.526.769-1.29.913-2.293.144-1.003.069-1.827-.226-2.473-.296-.636-.73-.994-1.3-1.076-.57-.082-1.086.14-1.55.665-.476.535-.786 1.304-.93 2.307-.145 1.003-.063 1.823.244 2.459.295.646.727 1.01 1.297 1.092.57.082 1.088-.145 1.553-.681zM53.353 137.481c-.399-.118-.67-.382-.816-.792-.155-.414-.157-.876-.005-1.387.151-.511.437-.705.856-.58a.843.843 0 01.53.407c-.221.257-.377.539-.468.846-.161.542-.017.88.433 1.013.378.112.81-.104 1.295-.65.471-.539.884-1.406 1.24-2.603l.605-2.039c.042-.143-.008-.236-.151-.279l-1.028-.305.082-.276 3.282.975-.082.276-.72-.214c-.144-.043-.236.007-.279.151l-1.675 5.643c-.043.143.008.236.15.279l.721.213-.081.277-.752-.224c-.613-.182-1.052-.278-1.316-.29l.583-1.963c-.373.657-.766 1.102-1.18 1.335-.417.243-.825.306-1.224.187zM45.802 134.413c-.67-.306-1.096-.771-1.28-1.394-.184-.624-.08-1.367.315-2.23a7.11 7.11 0 01.295-.569l3.973 1.815.046-.102c.421-.922.589-1.724.502-2.409-.1-.679-.412-1.138-.935-1.377-.534-.244-1.033-.307-1.496-.191-.464.117-.874.398-1.23.845l-.25-.184c.387-.539.864-.878 1.431-1.017a2.528 2.528 0 011.66.178c.844.385 1.412 1.003 1.705 1.851.282.845.19 1.776-.274 2.795-.47 1.028-1.122 1.709-1.955 2.044-.837.344-1.673.326-2.507-.055zm-.187-2.671c-.545 1.193-.371 1.994.521 2.401.446.204.94.137 1.482-.202.532-.343.978-.884 1.339-1.622l-2.925-1.336c-.19.312-.328.565-.417.759zM34.78 118.582l-.877 1.06c1.086-.375 1.945-.3 2.578.224.624.517.91 1.175.856 1.976-.054.8-.438 1.631-1.152 2.494-.715.862-1.512 1.358-2.394 1.486-.882.128-1.672-.097-2.37-.675a3.049 3.049 0 01-.956-1.353l-2.031 2.452c-.095.115-.085.22.03.315l.579.48-.184.221-.604-.5c-.492-.408-.858-.669-1.096-.783l6.347-7.663c.095-.115.085-.22-.03-.315l-.579-.48.184-.222.604.5c.492.408.858.669 1.096.783zm-3.078 6.175c.42.347.954.429 1.603.247.643-.174 1.277-.639 1.903-1.394.626-.756.993-1.442 1.102-2.058.093-.615-.045-1.075-.414-1.381-.534-.443-1.324-.467-2.37-.073l-2.745 3.314c.187.543.494.991.922 1.345zM30.265 114.94l-4.33 3.989c-.109.102-.113.207-.012.317l.51.553-.212.195-.531-.577c-.434-.47-.761-.778-.982-.923l4.8-4.423c.094-.087.09-.185-.011-.295l-.51-.553.212-.195 2.103 2.282-.211.195-.51-.553c-.101-.109-.207-.114-.316-.012zm-6.021 5.505a.771.771 0 01-.259.522.741.741 0 01-1.062-.043.69.69 0 01-.193-.54.69.69 0 01.236-.523.745.745 0 01.552-.204.716.716 0 01.51.248.769.769 0 01.216.54zM22.283 111.165l-.452-1.718c-.106-.408-.092-.785.044-1.129.12-.346.333-.627.637-.843.47-.333 1.02-.441 1.651-.326.63.116 1.171.491 1.62 1.127.444.627.746 1.302.905 2.025-.246.096-.63.328-1.152.698l-.523.37-.166-.235.614-.572c.598-.541.6-1.229.01-2.064-.265-.375-.597-.604-.996-.687-.414-.086-.769-.025-1.065.185-.409.289-.53.747-.36 1.373l.451 1.718c.102.385.087.742-.046 1.071a1.826 1.826 0 01-.656.817c-.461.327-.983.448-1.565.363a1.985 1.985 0 01-1.414-.861c-.357-.505-.64-1.154-.849-1.947.246-.096.63-.328 1.153-.698l.522-.37.166.235-.614.572c-.577.513-.61 1.131-.099 1.854.228.322.516.517.864.584.348.067.657.005.927-.186.418-.296.549-.748.393-1.356zM14.788 103.224c.276.542.762.852 1.459.928.682.072 1.475-.122 2.378-.581.903-.459 1.534-.983 1.893-1.572.344-.594.385-1.148.124-1.661-.265-.523-.616-.883-1.051-1.08-.436-.198-.932-.233-1.49-.105l-.08-.3c.638-.18 1.223-.149 1.754.096.521.249.917.64 1.188 1.172.42.827.48 1.664.181 2.51-.304.837-.96 1.511-1.968 2.024-1.008.512-1.942.64-2.802.383-.86-.256-1.503-.803-1.928-1.64-.329-.646-.428-1.206-.297-1.679.12-.468.423-.825.908-1.072.627-.319 1.03-.302 1.21.049.144.285.184.552.12.801a2.318 2.318 0 00-.986.25c-.314.159-.53.37-.647.633-.132.259-.12.54.034.844zM17.567 94.623c-.43.771-1.182 1.334-2.256 1.689-1.073.354-2.012.35-2.817-.013-.805-.363-1.358-1-1.66-1.911-.3-.912-.236-1.753.194-2.524.427-.781 1.177-1.35 2.25-1.704 1.074-.355 2.015-.346 2.823.028.805.362 1.358 1 1.66 1.911.3.911.236 1.753-.194 2.524zm-5.096.74c.677.18 1.497.112 2.459-.206s1.666-.752 2.113-1.304c.436-.549.564-1.097.383-1.643-.18-.547-.61-.911-1.287-1.091-.69-.188-1.517-.123-2.479.195-.962.318-1.66.757-2.093 1.315-.446.552-.58 1.102-.399 1.648.181.547.615.91 1.303 1.086zM8.495 83.427l-.34-2.003.284-.049.1.584c.015.095.101.156.258.183l6.707 1.28.072.427-5.91 3.42c-.139.077-.2.163-.184.258l.1.583-.285.048-.454-2.681.284-.048.133.788 4.677-2.658-5.294-.985.136.805-.284.048zM7.66 74.524c-.016-.735.216-1.322.697-1.76.481-.437 1.196-.666 2.145-.688.192-.004.405.002.64.018l.098 4.366.112-.002c1.013-.023 1.809-.222 2.387-.598.567-.386.844-.867.831-1.442-.013-.587-.173-1.063-.48-1.43-.306-.366-.739-.613-1.296-.739l.057-.305c.653.113 1.166.395 1.539.845.362.451.55.975.563 1.572.021.927-.287 1.708-.923 2.34-.637.623-1.515.947-2.635.972-1.13.025-2.027-.264-2.691-.868-.675-.604-1.023-1.364-1.044-2.28zm2.323-1.332c-1.312.03-1.956.535-1.934 1.516.01.49.287.905.828 1.245.54.33 1.221.495 2.043.498l-.072-3.214a7.805 7.805 0 00-.865-.045zM8.388 63.996c.048-.413.263-.726.642-.939.38-.223.836-.304 1.366-.241.53.062.768.31.717.745a.844.844 0 01-.311.591 2.286 2.286 0 00-.913-.317c-.562-.066-.87.134-.925.6-.046.392.24.78.861 1.165.611.372 1.536.632 2.776.778l2.112.25c.149.018.232-.048.25-.196l.125-1.064.286.033-.402 3.4-.286-.034.088-.746c.018-.149-.047-.232-.196-.25l-5.846-.69c-.148-.017-.231.048-.249.196l-.088.747-.286-.034.092-.778c.075-.636.096-1.084.062-1.346l2.034.24c-.71-.255-1.216-.567-1.516-.936-.311-.37-.442-.76-.393-1.174zM17.764 42.994l3.846 1.666c.117.05.206.008.265-.13l.299-.69.264.115-1.144 2.643-.265-.115.21-.484c.06-.137.03-.231-.087-.282l-4.037-1.749c-.499-.216-.91-.272-1.234-.168-.334.1-.577.325-.73.678-.211.489-.067 1.028.433 1.616.491.585 1.328 1.134 2.513 1.646l1.805.783c.137.059.235.02.295-.117l.299-.69.264.115-1.145 2.642-.264-.115.21-.484c.06-.137.03-.23-.087-.282l-4.037-1.748c-.5-.216-.91-.273-1.235-.169-.333.1-.576.326-.729.678-.212.49-.068 1.028.433 1.617.49.584 1.328 1.133 2.512 1.646l1.806.782c.137.06.235.02.294-.117l.21-.484.264.114-1.144 2.643-.265-.115.3-.69c.059-.137.03-.23-.088-.282l-5.431-2.352c-.137-.06-.235-.02-.295.116l-.299.69-.264-.114.312-.72c.254-.586.403-1.01.446-1.27l1.967.852c-1.23-.917-1.614-1.908-1.152-2.975.203-.47.55-.802 1.041-.996.495-.204 1.097-.17 1.804.102-1.24-.921-1.629-1.915-1.167-2.981.212-.49.58-.83 1.105-1.021.514-.196 1.149-.13 1.902.196zM23.577 41.3c-.874.127-1.778-.128-2.711-.766-.934-.637-1.5-1.386-1.701-2.246-.2-.86-.03-1.687.511-2.48.541-.792 1.249-1.252 2.123-1.378.88-.135 1.787.116 2.72.754.934.637 1.498 1.39 1.692 2.26.2.86.03 1.685-.51 2.478-.542.793-1.25 1.252-2.124 1.379zm-3.683-3.599c.268.648.82 1.258 1.657 1.829.837.571 1.61.867 2.32.887.7.013 1.214-.218 1.539-.693.324-.476.353-1.038.085-1.685-.27-.663-.825-1.28-1.661-1.851-.837-.572-1.609-.86-2.316-.865-.71-.02-1.227.209-1.551.684-.325.476-.35 1.04-.072 1.694zM26.864 27.113c.282-.306.639-.434 1.07-.384.44.043.856.245 1.248.606.392.362.44.703.144 1.025a.844.844 0 01-.6.296 2.286 2.286 0 00-.552-.793c-.416-.383-.783-.402-1.1-.057-.268.29-.264.773.013 1.448.276.661.872 1.414 1.79 2.26l1.564 1.442c.11.1.216.097.317-.013l.726-.788.212.195-2.32 2.517-.212-.195.51-.553c.1-.11.096-.215-.013-.316l-4.329-3.99c-.11-.101-.215-.097-.316.013l-.51.552-.212-.195.532-.576c.433-.47.713-.822.84-1.053l1.505 1.388c-.425-.625-.651-1.174-.678-1.648-.035-.482.089-.875.37-1.181zM32.943 21.688c.57-.466 1.175-.645 1.815-.535.641.109 1.262.53 1.864 1.265.121.149.248.32.38.516L33.623 25.7l.071.087c.642.784 1.29 1.288 1.941 1.512.654.21 1.204.131 1.65-.234.453-.371.73-.79.83-1.258.099-.468.027-.96-.217-1.477l.275-.143c.313.584.407 1.162.282 1.733a2.53 2.53 0 01-.89 1.412c-.718.588-1.523.826-2.413.715-.883-.119-1.679-.61-2.388-1.477-.716-.875-1.041-1.76-.975-2.655.06-.904.444-1.646 1.154-2.227zm2.48 1.009c-.831-1.015-1.626-1.212-2.385-.59-.38.31-.537.784-.471 1.42.074.628.362 1.267.866 1.916l2.488-2.037a7.83 7.83 0 00-.498-.71zM52.01 18.766l-.564-1.255c-.142 1.14-.587 1.879-1.336 2.216-.74.332-1.456.298-2.151-.102-.695-.4-1.273-1.112-1.732-2.133-.46-1.021-.553-1.956-.28-2.804.273-.848.823-1.458 1.65-1.83a3.05 3.05 0 011.636-.263l-1.307-2.903c-.061-.136-.16-.173-.296-.112l-.686.309-.118-.263.715-.322c.584-.262.979-.475 1.186-.639l4.084 9.074c.061.136.16.173.296.112l.686-.309.118.263-.715.322c-.583.262-.978.475-1.186.639zm-4.187-5.483c-.496.223-.805.666-.928 1.33-.127.653.011 1.427.414 2.322.403.894.857 1.526 1.362 1.895.51.355.985.434 1.422.237.633-.284 1.002-.983 1.11-2.095l-1.767-3.925a2.965 2.965 0 00-1.613.236zM57.269 16.316l-1.675-5.644c-.043-.143-.136-.194-.279-.151l-.72.214-.083-.276.752-.223c.613-.182 1.033-.34 1.26-.475l1.858 6.257c.037.123.126.163.27.12l.72-.213.082.276-2.975.883-.082-.276.72-.214c.144-.043.194-.135.152-.279zm-2.291-7.83a.77.77 0 01-.355-.463.74.74 0 01.507-.935.689.689 0 01.57.065.69.69 0 01.365.442.74.74 0 01-.507.935.77.77 0 01-.58-.045zM64.172 10.813l1.742.351c.413.085.744.264.993.537.259.26.417.575.477.944.091.568-.053 1.11-.435 1.625-.382.516-.956.835-1.725.959a5.54 5.54 0 01-2.217-.08c.023-.263-.017-.71-.119-1.342l-.102-.632.285-.046.243.804c.222.774.838 1.08 1.849.917.453-.073.804-.27 1.055-.591.26-.334.36-.68.303-1.038-.08-.495-.438-.804-1.074-.929l-1.741-.35c-.391-.078-.705-.25-.942-.513a1.824 1.824 0 01-.444-.95c-.09-.558.03-1.08.363-1.565.33-.496.796-.793 1.396-.89.61-.098 1.318-.066 2.122.096-.023.263.017.71.119 1.342l.102.632-.285.046-.243-.804c-.206-.744-.746-1.046-1.62-.905-.39.062-.691.235-.905.518a1.159 1.159 0 00-.241.914c.081.505.43.822 1.044.95zM74.604 7.583c-.608.01-1.1.31-1.475.901-.365.581-.54 1.379-.526 2.392.014 1.013.207 1.81.578 2.391.381.57.86.852 1.436.844.586-.009 1.064-.165 1.433-.469.369-.303.619-.734.75-1.29l.305.06c-.12.652-.405 1.162-.859 1.531a2.53 2.53 0 01-1.576.55c-.927.014-1.705-.3-2.333-.942-.617-.642-.934-1.528-.95-2.658-.016-1.13.28-2.025.89-2.685.61-.659 1.383-.995 2.322-1.008.725-.01 1.27.147 1.638.472.367.315.555.744.562 1.288.01.704-.182 1.059-.576 1.064-.32.005-.577-.077-.772-.245a2.32 2.32 0 00.21-.995c-.005-.352-.1-.638-.284-.86-.174-.232-.432-.345-.773-.34zM81.104 13.865c-.503-.726-.677-1.649-.523-2.769.154-1.12.572-1.961 1.252-2.524s1.496-.779 2.447-.648c.95.131 1.678.56 2.18 1.286.514.727.693 1.651.539 2.77-.154 1.12-.577 1.961-1.268 2.523-.68.563-1.496.779-2.447.648-.95-.131-1.678-.56-2.18-1.286zm1.58-4.901c-.461.528-.76 1.295-.899 2.298-.138 1.004-.058 1.828.241 2.472.3.633.736.99 1.306 1.068.57.079 1.086-.146 1.547-.675.472-.538.777-1.309.916-2.312.138-1.004.052-1.823-.26-2.458-.298-.644-.733-1.005-1.303-1.084-.57-.079-1.087.152-1.549.69zM95.148 10.654l1.948.577-.082.276-.567-.168c-.092-.027-.185.023-.279.151l-4.103 5.458-.414-.123-.467-6.812c-.01-.159-.06-.251-.151-.279l-.568-.168.082-.276 2.607.773-.082.276-.766-.227.327 5.37 3.216-4.32-.783-.232.082-.276zM103.513 13.824c.667.31 1.092.776 1.273 1.4.181.625.072 1.368-.327 2.23a7.21 7.21 0 01-.298.566l-3.963-1.835-.047.102c-.426.919-.597 1.72-.515 2.406.097.679.406 1.14.929 1.382.532.246 1.03.312 1.495.198.464-.114.875-.393 1.234-.838l.249.186c-.389.536-.869.873-1.437 1.009a2.53 2.53 0 01-1.659-.187c-.842-.39-1.407-1.01-1.695-1.86-.278-.846-.182-1.777.289-2.793.475-1.026 1.13-1.704 1.965-2.034.839-.34 1.674-.317 2.507.068zm.173 2.672c.551-1.19.381-1.992-.509-2.404-.445-.206-.939-.142-1.483.194-.534.34-.983.88-1.347 1.615l2.918 1.352c.191-.311.331-.564.421-.757zM112.642 19.114c.349.225.536.555.56.99.033.44-.095.884-.385 1.332-.289.448-.618.553-.985.316a.846.846 0 01-.394-.54c.285-.185.514-.411.687-.68.307-.475.263-.84-.131-1.094-.331-.214-.806-.128-1.425.26-.604.384-1.244 1.1-1.921 2.148l-1.155 1.787c-.081.126-.059.229.066.31l.901.582-.157.242-2.875-1.858.156-.242.632.408c.125.08.228.059.309-.067l3.196-4.944c.081-.126.058-.229-.067-.31l-.631-.408.156-.242.658.426c.538.347.931.563 1.181.648l-1.111 1.72c.542-.525 1.045-.842 1.508-.949.469-.116.878-.061 1.227.165zM127.368 36.782l-3.189 2.719c-.098.083-.098.181-.001.295l.488.572-.22.187-1.868-2.191.22-.187.342.401c.097.114.194.13.291.046l3.348-2.854c.414-.353.646-.697.695-1.034.058-.343-.038-.66-.287-.953-.346-.406-.893-.514-1.642-.324-.741.183-1.602.694-2.584 1.53l-1.498 1.277c-.113.097-.122.202-.025.316l.488.572-.219.187-1.868-2.191.219-.187.342.401c.097.114.194.13.292.046l3.347-2.853c.414-.353.646-.698.696-1.035.057-.343-.039-.66-.288-.953-.346-.406-.893-.514-1.642-.324-.741.183-1.602.694-2.584 1.53l-1.498 1.277c-.113.097-.122.202-.025.316l.343.402-.219.186-1.868-2.19.219-.188.487.573c.097.113.194.128.292.045l4.504-3.84c.114-.096.122-.202.025-.315l-.487-.572.219-.187.508.596c.415.487.73.808.945.96l-1.631 1.392c1.364-.701 2.424-.61 3.178.275.332.39.477.848.435 1.374-.035.534-.33 1.06-.886 1.575 1.373-.708 2.436-.62 3.19.265.346.406.49.886.43 1.441-.051.549-.389 1.09-1.014 1.622zM126.325 42.749c.272-.84.899-1.54 1.883-2.097.983-.557 1.905-.736 2.766-.538.86.2 1.527.716 2 1.551.473.835.574 1.673.303 2.513-.267.85-.891 1.553-1.875 2.11-.983.558-1.908.733-2.774.525-.86-.2-1.527-.716-2-1.551-.473-.835-.574-1.673-.303-2.513zm4.854-1.721c-.7-.045-1.49.182-2.372.682-.881.5-1.487 1.063-1.817 1.692-.321.623-.34 1.185-.056 1.686.284.501.776.774 1.475.82.714.048 1.512-.177 2.394-.677.881-.5 1.48-1.065 1.796-1.698.33-.628.353-1.193.069-1.694-.284-.501-.78-.771-1.489-.811zM137.616 51.947c.15.387.107.764-.128 1.13-.232.376-.596.66-1.093.853-.498.193-.825.086-.983-.322a.843.843 0 01-.002-.669c.338.018.657-.031.955-.147.527-.204.706-.525.536-.963-.143-.368-.578-.576-1.307-.626-.714-.043-1.653.161-2.816.612l-1.984.77c-.139.054-.182.15-.128.29l.388.999-.269.104-1.238-3.192.269-.104.272.701c.054.14.15.182.29.128l5.488-2.129c.139-.054.182-.15.128-.29l-.272-.7.269-.105.283.731c.231.597.423 1.003.575 1.218l-1.909.74c.748-.106 1.341-.067 1.779.117.447.181.746.466.897.854zM139.808 59.796c.167.717.061 1.338-.319 1.866-.381.527-1.033.899-1.957 1.115a7.079 7.079 0 01-.631.115l-.995-4.253-.109.026c-.987.231-1.724.59-2.213 1.077-.475.494-.647 1.022-.516 1.583.134.571.388 1.004.764 1.3.376.295.85.447 1.421.456l.007.31c-.662.024-1.222-.146-1.68-.51a2.53 2.53 0 01-.875-1.422c-.212-.903-.071-1.73.421-2.48.495-.741 1.288-1.239 2.378-1.494 1.101-.258 2.038-.16 2.813.294.784.452 1.281 1.124 1.491 2.017zm-1.998 1.782c1.277-.299 1.804-.926 1.58-1.881-.112-.478-.468-.827-1.067-1.048-.597-.211-1.298-.233-2.102-.067l.733 3.13c.363-.04.648-.085.856-.134z" fill="#212121"></path></svg>