<svg xmlns="http://www.w3.org/2000/svg" width="132" height="130" viewBox="0 0 132 130" fill="none"><path d="M15.978 64.216l-.322-.034.088-.841c.018-.167-.057-.26-.224-.277l-10.168-1.07c-.143-.014-.223.062-.241.229l-.088.841-.323-.034.384-3.652.323.034-.089.842c-.017.167.045.258.189.273l10.24 1.077.374-3.563c.032-.31-.081-.49-.341-.542l-2.067-.49.044-.41.841.088c1.05.11 1.826.137 2.326.081-.147.371-.27 1.028-.37 1.97l-.576 5.478zM11.452 37.367l.299.125-.327.78c-.064.156-.03.261.102.317l6.726 2.812c1.152.481 1.876 1.175 2.174 2.08.287.9.197 1.91-.27 3.027-.468 1.119-1.123 1.892-1.966 2.32-.853.423-1.856.395-3.007-.087L8.457 45.93c-.133-.056-.232-.006-.296.15l-.327.78-.299-.125 1.417-3.388.299.125-.327.78c-.064.155-.03.26.103.316l6.841 2.861c.93.389 1.717.451 2.361.187.637-.28 1.12-.813 1.449-1.599.333-.797.394-1.565.183-2.303-.223-.744-.838-1.326-1.845-1.747l-6.726-2.813c-.133-.055-.231-.005-.296.15l-.327.78-.299-.125 1.084-2.59zM17.78 28.406l4.822.914-1.528-4.848-.578.69-.248-.207 1.583-1.891.248.208-.428.51c-.069.083-.078.224-.026.424l1.627 5.236 6.289 1.18c.183.044.32.01.413-.1l.427-.511.249.208-2.242 2.678-.248-.209.577-.69-5.132-.963 1.62 5.16.578-.69.248.207-1.583 1.89-.248-.207.427-.51c.07-.084.078-.225.026-.425l-1.718-5.546-5.978-1.132c-.183-.043-.32-.01-.413.1l-.427.511-.249-.208 2.242-2.677.248.208-.577.69zM38.072 24.674c-.657.442-1.435.705-2.333.789-.293.037-.479.083-.558.137-.15.1-.16.258-.028.474l.125.22-.283.19-1.678-2.494.268-.18c.606.706 1.271 1.082 1.997 1.13.73.03 1.422-.177 2.08-.619.666-.449 1.049-.966 1.146-1.552a2.122 2.122 0 00-.331-1.621c-.523-.777-1.366-1.063-2.53-.858l-2.31.404c-.698.123-1.32.07-1.863-.157a2.942 2.942 0 01-1.307-1.073c-.49-.727-.664-1.513-.524-2.359.132-.856.657-1.592 1.573-2.208.538-.362 1.21-.555 2.02-.578.262-.018.428-.05.498-.097.13-.087.129-.239-.002-.454l-.186-.309.284-.19 1.738 2.583-.269.18c-.595-.712-1.222-1.107-1.882-1.185-.656-.093-1.282.06-1.88.463-.587.395-.935.867-1.042 1.417-.105.533-.016 1.008.265 1.427.275.408.632.703 1.072.884.45.174.958.209 1.524.103l2.324-.414c.778-.133 1.464-.081 2.058.156.596.22 1.062.58 1.397 1.077.476.707.604 1.51.385 2.41-.22.9-.802 1.668-1.748 2.304zM55.587 16.826l-3.525 1.094-.096-.31 1.118-.346-2.234-2.944-3.782 1.174-.173 3.691 1.117-.347.096.31-2.595.805-.096-.31.636-.197c.16-.05.244-.163.252-.342l.59-11.454.585-.181 6.973 9.106c.107.143.241.19.401.14l.636-.198.096.31zm-8.216-7.1l-.263 5.227 3.421-1.061-3.158-4.165zM70.879 16.131l.062-.318.83.164c.165.032.261-.022.29-.164L74.04 5.746c.028-.141-.04-.228-.206-.26l-.83-.164.063-.317 4.133.812c.883.174 1.589.563 2.118 1.169.54.608.736 1.294.585 2.06a2.665 2.665 0 01-.782 1.46 2.915 2.915 0 01-1.431.746c.71.31 1.244.764 1.603 1.361.372.599.474 1.322.308 2.17-.165.836-.65 1.468-1.456 1.897-.806.428-1.703.546-2.692.351l-4.575-.9zm5.6-4.787l-1.96-.385-1.018 5.175 1.96.385c.707.139 1.306-.012 1.796-.454.502-.44.822-1.006.958-1.701.137-.695.055-1.335-.246-1.92-.286-.594-.783-.96-1.49-1.1zm.252-5.105l-1.236-.243-.89 4.521 1.343.264c.695.137 1.26.003 1.693-.4.434-.405.713-.918.835-1.543.126-.635.05-1.188-.224-1.658-.272-.482-.779-.795-1.52-.941zM92.154 23.153c.16.084.32.087.483.01a.861.861 0 00.411-.393c.101-.192.178-.375.23-.551l.328.112a2.304 2.304 0 01-.214.559c-.202.382-.478.623-.829.722-.34.106-.691.063-1.052-.127-.902-.476-1.065-1.26-.488-2.354.577-1.093.861-1.967.854-2.622-.001-.666-.427-1.223-1.276-1.67l-1.035-.546-2.175 4.123c-.078.148-.043.262.105.34l1.067.563-.151.287-3.566-1.882.15-.286.749.395c.149.078.262.043.34-.106l4.771-9.043c.067-.127.026-.23-.122-.308l-.748-.395.15-.287 3.965 2.092c.892.47 1.522 1.114 1.89 1.933.369.819.338 1.636-.094 2.454-.347.658-.848 1.106-1.502 1.344-.639.233-1.337.258-2.095.075.619.652.856 1.36.71 2.125-.126.625-.385 1.31-.777 2.052-.392.743-.418 1.204-.079 1.384zm1.632-10.963l-1.608-.849-2.368 4.49 1.608.848c.637.336 1.248.373 1.833.113.596-.256 1.054-.686 1.373-1.291.32-.605.416-1.226.29-1.862-.115-.63-.491-1.114-1.128-1.45zM104.089 34.024l-2.607-2.612.229-.229.827.828 1.569-3.346-2.798-2.803-3.349 1.563.827.828-.23.229-1.92-1.924.23-.23.47.472c.119.12.259.14.42.064l10.417-4.8.432.433-4.822 10.406c-.076.162-.055.302.063.42l.471.472-.229.229zm2.467-10.575l-4.75 2.197 2.53 2.536 2.22-4.733zM111.272 46.171l5.953-10.547-8.467 4.237c-.15.075-.188.188-.113.338l.379.757-.29.145-1.256-2.511.289-.145.379.756c.075.15.188.188.338.113l9.143-4.576c.129-.064.156-.172.08-.322l-.378-.756.29-.145 1.184 2.366-5.069 9.017 7.147-3.576c.151-.075.188-.188.113-.338l-.379-.757.29-.145 1.257 2.511-.29.145-.378-.756c-.076-.15-.178-.194-.306-.129l-9.659 4.833-.257-.515zM124.871 52.143l.321-.043.611 4.531c.203 1.51-.13 2.809-1.001 3.895-.871 1.086-2.181 1.746-3.929 1.982-1.748.235-3.186-.055-4.313-.872-1.127-.817-1.792-1.98-1.996-3.491l-.61-4.531.321-.043.113.838c.022.167.105.24.248.221l10.168-1.37c.143-.019.203-.112.18-.278l-.113-.839zm.432 4.555l-.266-1.98-10.24 1.38.267 1.98c.138 1.022.711 1.817 1.719 2.383 1.009.567 2.304.744 3.886.53 1.582-.213 2.784-.726 3.607-1.539.823-.813 1.165-1.73 1.027-2.754zM49.34 106v-1.89h4.934c.98 0 1.47-.49 1.47-1.47V43c0-.84-.49-1.26-1.47-1.26H49.34v-1.89h21.42v1.89h-4.935c-.98 0-1.47.42-1.47 1.26v60.06H85.25c1.82 0 2.8-.77 2.94-2.31l1.575-12.285h2.415V93.4c0 6.16.315 10.675.945 13.545-2.24-.63-6.125-.945-11.655-.945H49.34z" fill="#212121"></path></svg>