<svg xmlns="http://www.w3.org/2000/svg" width="50" height="50" fill="none" viewBox="0 0 50 50"><path fill="#fff" d="M2.084 8.334h45.833V12.5H2.084V8.334zm0 29.166h45.833v4.167H2.084V37.5zm38.796-6.429l-.363-1.813h-4.06l-.646 1.798-3.254.007c2.094-5.013 3.646-8.73 4.658-11.142.265-.631.736-.952 1.427-.948.53.004 1.394.004 2.594 0l2.515 12.094-2.871.006v-.002zm-3.509-4.296h2.617l-.979-4.541-1.638 4.541zm-20.97-7.804l3.27.004-5.056 12.096-3.312-.002a1636.007 1636.007 0 0 1-2.467-9.594c-.16-.64-.48-1.085-1.096-1.296-.548-.187-1.46-.479-2.74-.873v-.333h5.228c.904 0 1.431.438 1.602 1.333l1.291 6.852 3.28-8.187zm7.764.004L21.582 31.07l-3.115-.004 2.584-12.094 3.114.004zm6.317-.225c.93 0 2.104.288 2.78.556l-.547 2.509c-.61-.246-1.614-.577-2.458-.563-1.23.019-1.988.534-1.988 1.027 0 .8 1.317 1.204 2.675 2.082 1.548 1 1.75 1.895 1.732 2.87-.021 2.023-1.732 4.02-5.342 4.02-1.648-.026-2.242-.163-3.583-.638l.566-2.617c1.367.57 1.948.752 3.115.752 1.073 0 1.992-.431 2-1.183.004-.536-.323-.8-1.525-1.463-1.202-.66-2.886-1.575-2.865-3.416.027-2.355 2.265-3.936 5.438-3.936h.002z"/></svg>